PathFileType	4	(x/y/z)	S08_PSF_T05
DataRate	CameraRate	NumFrames	NumMarkers	Units	OrigDataRate	OrigDataStartFrame	OrigNumFrames
240	240	4	51	mm	240	157	418
Frame#	Time	Sternum			R.Acromium			L.Acromium			Top.Head			R.ASIS			L.ASIS			R.PSIS			L.PSIS			R.Great.Tro			L.Great.Tro			R.Iliac.Crest			L.Iliac.Crest			V.Sacral			R.Thigh.Upper.Post			R.Thigh.Lower.Ant			R.Thigh.Lower.Post			R.Thigh.Upper.Ant			R.Knee.Lat			R.Knee.Med			R.Shank.Upper.Post			R.Shank.Lower.Ant			R.Shank.Lower.Post			R.Shank.Upper.Ant			R.Ankle.Lat			R.Ankle.Med			R.Heel.Upper			R.Heel.Med			R.Heel.Lat			R.Toe.Lat			R.Toe.Med			R.Toe.Tip			L.Thigh.Upper.Post			L.Thigh.Lower.Ant			L.Thigh.Lower.Post			L.Thigh.Upper.Ant			L.Knee.Lat			L.Knee.Med			L.Shank.Upper.Post			L.Shank.Lower.Ant			L.Shank.Lower.Post			L.Shank.Upper.Ant			L.Ankle.Lat			L.Ankle.Med			L.Heel.Upper			L.Heel.Med			L.Heel.Lat			L.Toe.Lat			L.Toe.Med			L.Toe.Tip			Cervical.Spine			Back			
		X1	Y1	Z1	X2	Y2	Z2	X3	Y3	Z3	X4	Y4	Z4	X5	Y5	Z5	X6	Y6	Z6	X7	Y7	Z7	X8	Y8	Z8	X9	Y9	Z9	X10	Y10	Z10	X11	Y11	Z11	X12	Y12	Z12	X13	Y13	Z13	X14	Y14	Z14	X15	Y15	Z15	X16	Y16	Z16	X17	Y17	Z17	X18	Y18	Z18	X19	Y19	Z19	X20	Y20	Z20	X21	Y21	Z21	X22	Y22	Z22	X23	Y23	Z23	X24	Y24	Z24	X25	Y25	Z25	X26	Y26	Z26	X27	Y27	Z27	X28	Y28	Z28	X29	Y29	Z29	X30	Y30	Z30	X31	Y31	Z31	X32	Y32	Z32	X33	Y33	Z33	X34	Y34	Z34	X35	Y35	Z35	X36	Y36	Z36	X37	Y37	Z37	X38	Y38	Z38	X39	Y39	Z39	X40	Y40	Z40	X41	Y41	Z41	X42	Y42	Z42	X43	Y43	Z43	X44	Y44	Z44	X45	Y45	Z45	X46	Y46	Z46	X47	Y47	Z47	X48	Y48	Z48	X49	Y49	Z49	X50	Y50	Z50	X51	Y51	Z51	

157	0.65	-499.66	1213.1	311.94	-626.16	1442.8	489.16	-635.88	1477.4	155.24	-623.59	1765.9	335.19	-511.22	1000.6	411.41	-519.16	995.37	179.79	-717.66	1018.7	343.94	-714.29	1022.9	251.21	-563.3	896.02	485.33	-625.4	887.52	118.15	-608.9	1065.7	462.05	-613.58	1078.1	154.13	-732.75	980.57	297.25	-523.47	698.75	468.17	-423.57	627.71	425.2	-492.19	615.37	444.45	-448.97	717.05	447.99	-428.08	525.62	415.98	-466.76	521.43	295.18	-460.2	330.81	423.46	-391.47	280.48	395.91	-448.67	254.96	413.34	-402.71	356.67	407.4	-425.72	90.997	368.73	-397.04	115.99	292.63	-468.14	63.097	315.31	-452.58	37.456	288.86	-462.86	38.202	349.66	NaN	NaN	NaN	-270.21	55.162	286.29	-209.52	80.3	334.29	-668.08	687.5	137.54	-589.86	588.24	146.61	-659.19	597.21	149.68	-597.08	675.29	129.91	-664.64	495.91	163.15	-641.75	484.76	286.94	-822.46	404.42	168.08	-836.88	293.76	180.53	-875.26	353.97	184.5	-784.63	351.24	166.61	-978.04	211	196.37	-951.49	200.5	278.42	-1025.4	239.72	244.75	-1042	214.85	280.43	-1046.5	215.47	215.99	-961.3	65.264	196.3	-935.53	68.846	308.7	-888.7	36.477	264.8	-698.72	1502.1	315.92	-736.55	1215.4	319.01
158	0.65417	-493.99	1213.9	312.18	-620.34	1443.5	489.44	-630.26	1478.2	155.57	-618	1766.6	335.71	-505.61	1001.6	411.96	-513.39	995.78	180.37	-711.99	1019.3	344.06	-708.56	1023.2	251.31	-557.68	897.01	485.89	-618.91	887.4	118.65	-603.37	1066.7	462.3	-607.77	1078.4	154.38	-727	981.02	297.45	-518.23	699.42	468.8	-418.65	628.09	425.6	-487.27	615.97	445.05	-443.74	717.51	448.44	-423.6	525.82	416.28	-462.4	521.96	295.52	-457.26	331.19	423.79	-389.03	280.3	395.98	-446.37	255.26	413.61	-399.59	356.59	407.54	-425.23	91.138	368.76	-396.47	115.99	292.66	-467.93	63.306	315.41	-452.47	37.635	288.91	-462.71	38.379	349.72	NaN	NaN	NaN	-269.96	54.344	286.14	-209.06	79.12	334.07	-659.23	686.54	137.49	-579.91	588.17	146.32	-649.14	596.39	149.25	-588.09	675.22	129.88	-653.39	495.35	162.32	-630.18	483.82	286.35	-811.53	405.79	167.12	-827.67	295.37	179.47	-865	356.01	183.5	-774.38	352.13	165.72	-969.47	214.9	194.94	-943.33	203.98	277.24	-1015.7	245.48	243.04	-1033.2	221.32	278.83	-1037.5	221.85	214.35	-957.15	68.218	195.48	-931.53	71.497	307.81	-885.97	36.316	264.14	-693.01	1502.8	316.33	-730.83	1216.1	319.3
159	0.65833	-488.37	1214.6	312.39	-614.52	1444.3	489.71	-624.66	1479	155.88	-612.42	1767.2	336.22	-500.04	1002.5	412.53	-507.69	996.2	180.94	-706.38	1019.9	344.2	-702.91	1023.6	251.43	-552.13	897.97	486.44	-612.49	887.31	119.17	-597.9	1067.6	462.57	-602.04	1078.7	154.63	-721.31	981.47	297.69	-513.16	700.05	469.4	-413.89	628.4	426.01	-482.53	616.52	445.61	-438.64	717.91	448.89	-419.29	525.98	416.55	-458.21	522.47	295.83	-454.45	331.55	424.07	-386.72	280.12	396.02	-444.2	255.55	413.82	-396.62	356.5	407.67	-424.81	91.292	368.78	-395.97	115.99	292.67	-467.75	63.485	315.49	-452.38	37.788	288.94	-462.59	38.538	349.76	NaN	NaN	NaN	-269.74	53.612	285.97	-208.66	78.077	333.84	-650.35	685.65	137.43	-569.93	588.18	146.05	-639.05	595.65	148.83	-579.08	675.21	129.85	-642.06	494.89	161.51	-618.57	482.98	285.81	-800.44	407.17	166.18	-818.31	297.05	178.43	-854.57	358.06	182.5	-763.97	353.06	164.86	-960.66	218.77	193.53	-934.94	207.44	276.09	-1005.7	251.08	241.37	-1024.1	227.6	277.26	-1028.3	228.08	212.73	-952.58	71.271	194.6	-927.11	74.225	306.85	-882.83	36.268	263.39	-687.31	1503.5	316.72	-725.15	1216.8	319.59
160	0.6625	-482.8	1215.3	312.59	-608.72	1445.1	489.95	-619.06	1479.7	156.16	-606.84	1767.9	336.73	-494.51	1003.5	413.09	-502.06	996.64	181.5	-700.82	1020.5	344.37	-697.34	1023.9	251.58	-546.65	898.89	486.98	-606.15	887.23	119.7	-592.47	1068.6	462.84	-596.37	1079	154.9	-715.69	981.9	297.95	-508.24	700.65	469.95	-409.29	628.63	426.41	-477.98	617.04	446.12	-433.69	718.24	449.34	-415.15	526.11	416.8	-454.19	522.94	296.12	-451.79	331.9	424.29	-384.53	279.93	396.02	-442.15	255.84	413.98	-393.79	356.41	407.76	-424.45	91.458	368.79	-395.53	115.99	292.64	-467.59	63.634	315.55	-452.3	37.918	288.97	-462.47	38.68	349.8	NaN	NaN	NaN	-269.56	52.958	285.8	-208.33	77.159	333.6	-641.45	684.83	137.38	-559.92	588.28	145.79	-628.94	594.99	148.43	-570.07	675.27	129.83	-630.66	494.52	160.72	-606.95	482.27	285.31	-789.22	408.57	165.25	-808.83	298.79	177.42	-843.97	360.11	181.51	-753.41	354.02	164.04	-951.64	222.59	192.15	-926.32	210.87	274.95	-995.51	256.5	239.75	-1014.8	233.67	275.71	-1018.8	234.12	211.14	-947.55	74.4	193.66	-922.23	77.007	305.83	-879.23	36.354	262.53	-681.62	1504.2	317.08	-719.52	1217.6	319.88
